solid OpenSCAD_Model
  facet normal 0 0 1
    outer loop
      vertex -31.1852 12.8897 90
      vertex -32.315 11.937 90
      vertex -31.3841 12.4583 90
    endloop
  endfacet
  facet normal 0 0 1
    outer loop
      vertex -30.0034 15 90
      vertex -32.315 11.937 90
      vertex -31.1852 12.8897 90
    endloop
  endfacet
  facet normal 0 0 1
    outer loop
      vertex -30.0034 15 90
      vertex -33.229 11.3262 90
      vertex -32.315 11.937 90
    endloop
  endfacet
  facet normal -0 0 1
    outer loop
      vertex -50 15 90
      vertex -33.229 11.3262 90
      vertex -30.0034 15 90
    endloop
  endfacet
  facet normal 0 0 1
    outer loop
      vertex -33.229 11.3262 90
      vertex -50 15 90
      vertex -34.0923 10.6457 90
    endloop
  endfacet
  facet normal 0 0 1
    outer loop
      vertex -38.9568 1.09843 90
      vertex -50 15 90
      vertex -39 0 90
    endloop
  endfacet
  facet normal 0 0 1
    outer loop
      vertex -38.8276 2.19008 90
      vertex -50 15 90
      vertex -38.9568 1.09843 90
    endloop
  endfacet
  facet normal 0 0 1
    outer loop
      vertex -38.6132 3.26823 90
      vertex -50 15 90
      vertex -38.8276 2.19008 90
    endloop
  endfacet
  facet normal 0 0 1
    outer loop
      vertex -38.3148 4.32624 90
      vertex -50 15 90
      vertex -38.6132 3.26823 90
    endloop
  endfacet
  facet normal 0 0 1
    outer loop
      vertex -37.9343 5.35757 90
      vertex -50 15 90
      vertex -38.3148 4.32624 90
    endloop
  endfacet
  facet normal 0 0 1
    outer loop
      vertex -37.4741 6.35587 90
      vertex -50 15 90
      vertex -37.9343 5.35757 90
    endloop
  endfacet
  facet normal 0 0 1
    outer loop
      vertex -36.937 7.31498 90
      vertex -50 15 90
      vertex -37.4741 6.35587 90
    endloop
  endfacet
  facet normal 0 0 1
    outer loop
      vertex -36.3262 8.22899 90
      vertex -50 15 90
      vertex -36.937 7.31498 90
    endloop
  endfacet
  facet normal 0 0 1
    outer loop
      vertex -35.6457 9.09227 90
      vertex -50 15 90
      vertex -36.3262 8.22899 90
    endloop
  endfacet
  facet normal 0 0 1
    outer loop
      vertex -34.8995 9.89949 90
      vertex -50 15 90
      vertex -35.6457 9.09227 90
    endloop
  endfacet
  facet normal 0 0 1
    outer loop
      vertex -34.0923 10.6457 90
      vertex -50 15 90
      vertex -34.8995 9.89949 90
    endloop
  endfacet
  facet normal 0 0 1
    outer loop
      vertex -34.8995 -9.89949 90
      vertex -34.0329 -11.1706 90
      vertex -34.1475 -10.5946 90
    endloop
  endfacet
  facet normal 0 0 1
    outer loop
      vertex -34.8995 -9.89949 90
      vertex -33.287 -13.8156 90
      vertex -34.0329 -11.1706 90
    endloop
  endfacet
  facet normal 0 0 1
    outer loop
      vertex -35.6457 -9.09227 90
      vertex -33.287 -13.8156 90
      vertex -34.8995 -9.89949 90
    endloop
  endfacet
  facet normal 0 0 1
    outer loop
      vertex -33.287 -13.8156 90
      vertex -35.6457 -9.09227 90
      vertex -50 -15 90
    endloop
  endfacet
  facet normal 0 0 1
    outer loop
      vertex -50 -15 90
      vertex -35.6457 -9.09227 90
      vertex -36.3262 -8.22899 90
    endloop
  endfacet
  facet normal 0 0 1
    outer loop
      vertex -50 -15 90
      vertex -36.3262 -8.22899 90
      vertex -36.937 -7.31498 90
    endloop
  endfacet
  facet normal 0 0 1
    outer loop
      vertex -50 -15 90
      vertex -36.937 -7.31498 90
      vertex -37.4741 -6.35587 90
    endloop
  endfacet
  facet normal 0 0 1
    outer loop
      vertex -50 -15 90
      vertex -39 0 90
      vertex -50 15 90
    endloop
  endfacet
  facet normal 0 0 1
    outer loop
      vertex -39 0 90
      vertex -50 -15 90
      vertex -38.9568 -1.09843 90
    endloop
  endfacet
  facet normal 0 0 1
    outer loop
      vertex -38.9568 -1.09843 90
      vertex -50 -15 90
      vertex -38.8276 -2.19008 90
    endloop
  endfacet
  facet normal 0 0 1
    outer loop
      vertex -38.8276 -2.19008 90
      vertex -50 -15 90
      vertex -38.6132 -3.26823 90
    endloop
  endfacet
  facet normal 0 0 1
    outer loop
      vertex -38.6132 -3.26823 90
      vertex -50 -15 90
      vertex -38.3148 -4.32624 90
    endloop
  endfacet
  facet normal 0 0 1
    outer loop
      vertex -38.3148 -4.32624 90
      vertex -50 -15 90
      vertex -37.9343 -5.35757 90
    endloop
  endfacet
  facet normal 0 0 1
    outer loop
      vertex -37.9343 -5.35757 90
      vertex -50 -15 90
      vertex -37.4741 -6.35587 90
    endloop
  endfacet
  facet normal 0 0 1
    outer loop
      vertex -33.287 -13.8156 90
      vertex -50 -15 90
      vertex -32.85 -15 90
    endloop
  endfacet
  facet normal -0 0 1
    outer loop
      vertex -32.315 11.937 90
      vertex -32.3358 10.3939 90
      vertex -31.3841 12.4583 90
    endloop
  endfacet
  facet normal -0 0 1
    outer loop
      vertex -33.229 11.3262 90
      vertex -32.3358 10.3939 90
      vertex -32.315 11.937 90
    endloop
  endfacet
  facet normal -0 0 1
    outer loop
      vertex -34.0923 10.6457 90
      vertex -32.3358 10.3939 90
      vertex -33.229 11.3262 90
    endloop
  endfacet
  facet normal 0 0 1
    outer loop
      vertex -32.3358 10.3939 90
      vertex -34.0923 10.6457 90
      vertex -33.287 7.81558 90
    endloop
  endfacet
  facet normal -0 0 1
    outer loop
      vertex -34.8995 9.89949 90
      vertex -33.287 7.81558 90
      vertex -34.0923 10.6457 90
    endloop
  endfacet
  facet normal -0 0 1
    outer loop
      vertex -35.6457 9.09227 90
      vertex -33.287 7.81558 90
      vertex -34.8995 9.89949 90
    endloop
  endfacet
  facet normal -0 0 1
    outer loop
      vertex -36.3262 8.22899 90
      vertex -33.287 7.81558 90
      vertex -35.6457 9.09227 90
    endloop
  endfacet
  facet normal 0 0 1
    outer loop
      vertex -33.287 7.81558 90
      vertex -36.3262 8.22899 90
      vertex -34.0329 5.17058 90
    endloop
  endfacet
  facet normal -0 0 1
    outer loop
      vertex -36.937 7.31498 90
      vertex -34.0329 5.17058 90
      vertex -36.3262 8.22899 90
    endloop
  endfacet
  facet normal -0 0 1
    outer loop
      vertex -37.4741 6.35587 90
      vertex -34.0329 5.17058 90
      vertex -36.937 7.31498 90
    endloop
  endfacet
  facet normal 0 0 1
    outer loop
      vertex -34.5691 -8.4752 90
      vertex -34.8995 -9.89949 90
      vertex -34.1475 -10.5946 90
    endloop
  endfacet
  facet normal -0 0 1
    outer loop
      vertex -36.3262 -8.22899 90
      vertex -34.5691 -8.4752 90
      vertex -34.8921 -5.74606 90
    endloop
  endfacet
  facet normal -0 0 1
    outer loop
      vertex -37.9343 -5.35757 90
      vertex -34.8921 -5.74606 90
      vertex -35 -3 90
    endloop
  endfacet
  facet normal -0 0 1
    outer loop
      vertex -37.9343 5.35757 90
      vertex -34.0329 5.17058 90
      vertex -37.4741 6.35587 90
    endloop
  endfacet
  facet normal 0 0 1
    outer loop
      vertex -34.5691 -8.4752 90
      vertex -35.6457 -9.09227 90
      vertex -34.8995 -9.89949 90
    endloop
  endfacet
  facet normal 0 0 1
    outer loop
      vertex -34.0329 5.17058 90
      vertex -37.9343 5.35757 90
      vertex -34.5691 2.4752 90
    endloop
  endfacet
  facet normal 0 0 1
    outer loop
      vertex -34.5691 -8.4752 90
      vertex -36.3262 -8.22899 90
      vertex -35.6457 -9.09227 90
    endloop
  endfacet
  facet normal -0 0 1
    outer loop
      vertex -38.3148 4.32624 90
      vertex -34.5691 2.4752 90
      vertex -37.9343 5.35757 90
    endloop
  endfacet
  facet normal 0 0 1
    outer loop
      vertex -34.8921 -5.74606 90
      vertex -36.937 -7.31498 90
      vertex -36.3262 -8.22899 90
    endloop
  endfacet
  facet normal -0 0 1
    outer loop
      vertex -38.6132 3.26823 90
      vertex -34.5691 2.4752 90
      vertex -38.3148 4.32624 90
    endloop
  endfacet
  facet normal 0 0 1
    outer loop
      vertex -34.8921 -5.74606 90
      vertex -37.4741 -6.35587 90
      vertex -36.937 -7.31498 90
    endloop
  endfacet
  facet normal 0 0 1
    outer loop
      vertex -38.8276 2.19008 90
      vertex -34.5691 2.4752 90
      vertex -38.6132 3.26823 90
    endloop
  endfacet
  facet normal 0 0 1
    outer loop
      vertex -34.8921 -5.74606 90
      vertex -37.9343 -5.35757 90
      vertex -37.4741 -6.35587 90
    endloop
  endfacet
  facet normal 0 0 1
    outer loop
      vertex -38.9568 1.09843 90
      vertex -34.5691 2.4752 90
      vertex -38.8276 2.19008 90
    endloop
  endfacet
  facet normal 0 0 1
    outer loop
      vertex -35 -3 90
      vertex -38.3148 -4.32624 90
      vertex -37.9343 -5.35757 90
    endloop
  endfacet
  facet normal 0 0 1
    outer loop
      vertex -34.5691 2.4752 90
      vertex -38.9568 1.09843 90
      vertex -34.8921 -0.253922 90
    endloop
  endfacet
  facet normal 0 0 1
    outer loop
      vertex -35 -3 90
      vertex -38.6132 -3.26823 90
      vertex -38.3148 -4.32624 90
    endloop
  endfacet
  facet normal -0 0 1
    outer loop
      vertex -39 0 90
      vertex -34.8921 -0.253922 90
      vertex -38.9568 1.09843 90
    endloop
  endfacet
  facet normal 0 0 1
    outer loop
      vertex -35 -3 90
      vertex -38.8276 -2.19008 90
      vertex -38.6132 -3.26823 90
    endloop
  endfacet
  facet normal 0 -0 1
    outer loop
      vertex -38.9568 -1.09843 90
      vertex -34.8921 -0.253922 90
      vertex -39 0 90
    endloop
  endfacet
  facet normal 0 0 1
    outer loop
      vertex -34.8921 -0.253922 90
      vertex -38.8276 -2.19008 90
      vertex -35 -3 90
    endloop
  endfacet
  facet normal 0 -0 1
    outer loop
      vertex -38.8276 -2.19008 90
      vertex -34.8921 -0.253922 90
      vertex -38.9568 -1.09843 90
    endloop
  endfacet
  facet normal 0 0 1
    outer loop
      vertex 50 15 90
      vertex 39 0 90
      vertex 50 -15 90
    endloop
  endfacet
  facet normal 0 0 1
    outer loop
      vertex 50 15 90
      vertex 38.9568 1.09843 90
      vertex 39 0 90
    endloop
  endfacet
  facet normal 0 0 1
    outer loop
      vertex 50 15 90
      vertex 38.8276 2.19008 90
      vertex 38.9568 1.09843 90
    endloop
  endfacet
  facet normal 0 0 1
    outer loop
      vertex 50 15 90
      vertex 38.6132 3.26823 90
      vertex 38.8276 2.19008 90
    endloop
  endfacet
  facet normal 0 0 1
    outer loop
      vertex 50 15 90
      vertex 38.3148 4.32624 90
      vertex 38.6132 3.26823 90
    endloop
  endfacet
  facet normal 0 0 1
    outer loop
      vertex 50 15 90
      vertex 37.9343 5.35757 90
      vertex 38.3148 4.32624 90
    endloop
  endfacet
  facet normal 0 0 1
    outer loop
      vertex 50 15 90
      vertex 37.4741 6.35587 90
      vertex 37.9343 5.35757 90
    endloop
  endfacet
  facet normal 0 0 1
    outer loop
      vertex 50 15 90
      vertex 36.937 7.31498 90
      vertex 37.4741 6.35587 90
    endloop
  endfacet
  facet normal 0 0 1
    outer loop
      vertex 50 15 90
      vertex 36.3262 8.22899 90
      vertex 36.937 7.31498 90
    endloop
  endfacet
  facet normal 0 0 1
    outer loop
      vertex 50 15 90
      vertex 35.6457 9.09227 90
      vertex 36.3262 8.22899 90
    endloop
  endfacet
  facet normal 0 0 1
    outer loop
      vertex 50 15 90
      vertex 34.8995 9.89949 90
      vertex 35.6457 9.09227 90
    endloop
  endfacet
  facet normal 0 0 1
    outer loop
      vertex 50 15 90
      vertex 34.0923 10.6457 90
      vertex 34.8995 9.89949 90
    endloop
  endfacet
  facet normal 0 0 1
    outer loop
      vertex 50 15 90
      vertex 33.229 11.3262 90
      vertex 34.0923 10.6457 90
    endloop
  endfacet
  facet normal -0 0 1
    outer loop
      vertex 30.0034 15 90
      vertex 33.229 11.3262 90
      vertex 50 15 90
    endloop
  endfacet
  facet normal 0 0 1
    outer loop
      vertex 33.229 11.3262 90
      vertex 30.0034 15 90
      vertex 32.315 11.937 90
    endloop
  endfacet
  facet normal 0 0 1
    outer loop
      vertex 32.315 11.937 90
      vertex 31.1852 12.8897 90
      vertex 31.3841 12.4583 90
    endloop
  endfacet
  facet normal 0 0 1
    outer loop
      vertex 32.315 11.937 90
      vertex 30.0034 15 90
      vertex 31.1852 12.8897 90
    endloop
  endfacet
  facet normal -0 0 1
    outer loop
      vertex 38.9568 -1.09843 90
      vertex 50 -15 90
      vertex 39 0 90
    endloop
  endfacet
  facet normal -0 0 1
    outer loop
      vertex 38.8276 -2.19008 90
      vertex 50 -15 90
      vertex 38.9568 -1.09843 90
    endloop
  endfacet
  facet normal -0 0 1
    outer loop
      vertex 38.6132 -3.26823 90
      vertex 50 -15 90
      vertex 38.8276 -2.19008 90
    endloop
  endfacet
  facet normal -0 0 1
    outer loop
      vertex 38.3148 -4.32624 90
      vertex 50 -15 90
      vertex 38.6132 -3.26823 90
    endloop
  endfacet
  facet normal -0 0 1
    outer loop
      vertex 37.9343 -5.35757 90
      vertex 50 -15 90
      vertex 38.3148 -4.32624 90
    endloop
  endfacet
  facet normal -0 0 1
    outer loop
      vertex 37.4741 -6.35587 90
      vertex 50 -15 90
      vertex 37.9343 -5.35757 90
    endloop
  endfacet
  facet normal -0 0 1
    outer loop
      vertex 36.937 -7.31498 90
      vertex 50 -15 90
      vertex 37.4741 -6.35587 90
    endloop
  endfacet
  facet normal -0 0 1
    outer loop
      vertex 36.3262 -8.22899 90
      vertex 50 -15 90
      vertex 36.937 -7.31498 90
    endloop
  endfacet
  facet normal -0 0 1
    outer loop
      vertex 35.6457 -9.09227 90
      vertex 50 -15 90
      vertex 36.3262 -8.22899 90
    endloop
  endfacet
  facet normal 0 0 1
    outer loop
      vertex 33.287 -13.8156 90
      vertex 35.6457 -9.09227 90
      vertex 34.8995 -9.89949 90
    endloop
  endfacet
  facet normal 0 0 1
    outer loop
      vertex 34.0329 -11.1706 90
      vertex 34.8995 -9.89949 90
      vertex 34.1475 -10.5946 90
    endloop
  endfacet
  facet normal 0 0 1
    outer loop
      vertex 33.287 -13.8156 90
      vertex 34.8995 -9.89949 90
      vertex 34.0329 -11.1706 90
    endloop
  endfacet
  facet normal 0 0 1
    outer loop
      vertex 35.6457 -9.09227 90
      vertex 33.287 -13.8156 90
      vertex 50 -15 90
    endloop
  endfacet
  facet normal 0 0 1
    outer loop
      vertex 50 -15 90
      vertex 33.287 -13.8156 90
      vertex 32.85 -15 90
    endloop
  endfacet
  facet normal 0 0 1
    outer loop
      vertex 34.8921 -0.253922 90
      vertex 39 0 90
      vertex 38.9568 1.09843 90
    endloop
  endfacet
  facet normal 0 0 1
    outer loop
      vertex 34.5691 2.4752 90
      vertex 38.9568 1.09843 90
      vertex 38.8276 2.19008 90
    endloop
  endfacet
  facet normal 0 0 1
    outer loop
      vertex 39 0 90
      vertex 34.8921 -0.253922 90
      vertex 38.9568 -1.09843 90
    endloop
  endfacet
  facet normal -0 0 1
    outer loop
      vertex 34.5691 2.4752 90
      vertex 38.8276 2.19008 90
      vertex 38.6132 3.26823 90
    endloop
  endfacet
  facet normal 0 0 1
    outer loop
      vertex 38.9568 -1.09843 90
      vertex 34.8921 -0.253922 90
      vertex 38.8276 -2.19008 90
    endloop
  endfacet
  facet normal 0 0 1
    outer loop
      vertex 34.5691 2.4752 90
      vertex 38.6132 3.26823 90
      vertex 38.3148 4.32624 90
    endloop
  endfacet
  facet normal 0 -0 1
    outer loop
      vertex 35 -3 90
      vertex 38.8276 -2.19008 90
      vertex 34.8921 -0.253922 90
    endloop
  endfacet
  facet normal 0 0 1
    outer loop
      vertex 34.5691 2.4752 90
      vertex 38.3148 4.32624 90
      vertex 37.9343 5.35757 90
    endloop
  endfacet
  facet normal 0 0 1
    outer loop
      vertex 38.8276 -2.19008 90
      vertex 35 -3 90
      vertex 38.6132 -3.26823 90
    endloop
  endfacet
  facet normal 0 0 1
    outer loop
      vertex 34.0329 5.17058 90
      vertex 37.9343 5.35757 90
      vertex 37.4741 6.35587 90
    endloop
  endfacet
  facet normal 0 0 1
    outer loop
      vertex 38.6132 -3.26823 90
      vertex 35 -3 90
      vertex 38.3148 -4.32624 90
    endloop
  endfacet
  facet normal 0 0 1
    outer loop
      vertex 34.0329 5.17058 90
      vertex 37.4741 6.35587 90
      vertex 36.937 7.31498 90
    endloop
  endfacet
  facet normal 0 0 1
    outer loop
      vertex 38.3148 -4.32624 90
      vertex 35 -3 90
      vertex 37.9343 -5.35757 90
    endloop
  endfacet
  facet normal 0 0 1
    outer loop
      vertex 34.0329 5.17058 90
      vertex 36.937 7.31498 90
      vertex 36.3262 8.22899 90
    endloop
  endfacet
  facet normal 0 0 1
    outer loop
      vertex 34.8921 -5.74606 90
      vertex 37.9343 -5.35757 90
      vertex 35 -3 90
    endloop
  endfacet
  facet normal 0 0 1
    outer loop
      vertex 33.287 7.81558 90
      vertex 36.3262 8.22899 90
      vertex 35.6457 9.09227 90
    endloop
  endfacet
  facet normal 0 0 1
    outer loop
      vertex 37.9343 -5.35757 90
      vertex 34.8921 -5.74606 90
      vertex 37.4741 -6.35587 90
    endloop
  endfacet
  facet normal 0 0 1
    outer loop
      vertex 36.937 -7.31498 90
      vertex 34.8921 -5.74606 90
      vertex 36.3262 -8.22899 90
    endloop
  endfacet
  facet normal 0 0 1
    outer loop
      vertex 33.287 7.81558 90
      vertex 35.6457 9.09227 90
      vertex 34.8995 9.89949 90
    endloop
  endfacet
  facet normal 0 0 1
    outer loop
      vertex 37.4741 -6.35587 90
      vertex 34.8921 -5.74606 90
      vertex 36.937 -7.31498 90
    endloop
  endfacet
  facet normal 0 0 1
    outer loop
      vertex 38.9568 1.09843 90
      vertex 34.5691 2.4752 90
      vertex 34.8921 -0.253922 90
    endloop
  endfacet
  facet normal 0 0 1
    outer loop
      vertex 33.287 7.81558 90
      vertex 34.8995 9.89949 90
      vertex 34.0923 10.6457 90
    endloop
  endfacet
  facet normal 0 0 1
    outer loop
      vertex 37.9343 5.35757 90
      vertex 34.0329 5.17058 90
      vertex 34.5691 2.4752 90
    endloop
  endfacet
  facet normal 0 0 1
    outer loop
      vertex 36.3262 8.22899 90
      vertex 33.287 7.81558 90
      vertex 34.0329 5.17058 90
    endloop
  endfacet
  facet normal 0 0 1
    outer loop
      vertex 32.3358 10.3939 90
      vertex 34.0923 10.6457 90
      vertex 33.229 11.3262 90
    endloop
  endfacet
  facet normal 0 0 1
    outer loop
      vertex 34.0923 10.6457 90
      vertex 32.3358 10.3939 90
      vertex 33.287 7.81558 90
    endloop
  endfacet
  facet normal 0 0 1
    outer loop
      vertex 32.315 11.937 90
      vertex 32.3358 10.3939 90
      vertex 33.229 11.3262 90
    endloop
  endfacet
  facet normal 0 0 1
    outer loop
      vertex 32.3358 10.3939 90
      vertex 32.315 11.937 90
      vertex 31.3841 12.4583 90
    endloop
  endfacet
  facet normal 0 0 1
    outer loop
      vertex 34.5691 -8.4752 90
      vertex 36.3262 -8.22899 90
      vertex 34.8921 -5.74606 90
    endloop
  endfacet
  facet normal 0 0 1
    outer loop
      vertex 36.3262 -8.22899 90
      vertex 34.5691 -8.4752 90
      vertex 35.6457 -9.09227 90
    endloop
  endfacet
  facet normal 0 0 1
    outer loop
      vertex 35.6457 -9.09227 90
      vertex 34.5691 -8.4752 90
      vertex 34.8995 -9.89949 90
    endloop
  endfacet
  facet normal 0 0 1
    outer loop
      vertex 34.8995 -9.89949 90
      vertex 34.5691 -8.4752 90
      vertex 34.1475 -10.5946 90
    endloop
  endfacet
  facet normal -0 0 -1
    outer loop
      vertex -34.8921 -5.74606 -90
      vertex -50 -15 -90
      vertex -35 -3 -90
    endloop
  endfacet
  facet normal -0 0 -1
    outer loop
      vertex -34.5691 -8.4752 -90
      vertex -50 -15 -90
      vertex -34.8921 -5.74606 -90
    endloop
  endfacet
  facet normal -0 0 -1
    outer loop
      vertex -34.0329 -11.1706 -90
      vertex -50 -15 -90
      vertex -34.5691 -8.4752 -90
    endloop
  endfacet
  facet normal -0 0 -1
    outer loop
      vertex -33.287 -13.8156 -90
      vertex -50 -15 -90
      vertex -34.0329 -11.1706 -90
    endloop
  endfacet
  facet normal 0 0 -1
    outer loop
      vertex -50 -15 -90
      vertex -33.287 -13.8156 -90
      vertex -32.85 -15 -90
    endloop
  endfacet
  facet normal 0 0 -1
    outer loop
      vertex -50 -15 -90
      vertex -34.8921 -0.253922 -90
      vertex -35 -3 -90
    endloop
  endfacet
  facet normal 0 0 -1
    outer loop
      vertex -50 15 -90
      vertex -34.8921 -0.253922 -90
      vertex -50 -15 -90
    endloop
  endfacet
  facet normal 0 0 -1
    outer loop
      vertex -34.8921 -0.253922 -90
      vertex -50 15 -90
      vertex -34.5691 2.4752 -90
    endloop
  endfacet
  facet normal 0 0 -1
    outer loop
      vertex -34.5691 2.4752 -90
      vertex -50 15 -90
      vertex -34.0329 5.17058 -90
    endloop
  endfacet
  facet normal 0 0 -1
    outer loop
      vertex -34.0329 5.17058 -90
      vertex -50 15 -90
      vertex -33.287 7.81558 -90
    endloop
  endfacet
  facet normal 0 0 -1
    outer loop
      vertex -33.287 7.81558 -90
      vertex -50 15 -90
      vertex -32.3358 10.3939 -90
    endloop
  endfacet
  facet normal 0 0 -1
    outer loop
      vertex -32.3358 10.3939 -90
      vertex -50 15 -90
      vertex -31.1852 12.8897 -90
    endloop
  endfacet
  facet normal 0 0 -1
    outer loop
      vertex -31.1852 12.8897 -90
      vertex -50 15 -90
      vertex -30.0034 15 -90
    endloop
  endfacet
  facet normal 0 0 -1
    outer loop
      vertex 34.8921 -0.253922 -90
      vertex 50 -15 -90
      vertex 35 -3 -90
    endloop
  endfacet
  facet normal 0 0 -1
    outer loop
      vertex 50 -15 -90
      vertex 34.8921 -5.74606 -90
      vertex 35 -3 -90
    endloop
  endfacet
  facet normal 0 0 -1
    outer loop
      vertex 50 -15 -90
      vertex 34.5691 -8.4752 -90
      vertex 34.8921 -5.74606 -90
    endloop
  endfacet
  facet normal 0 0 -1
    outer loop
      vertex 50 -15 -90
      vertex 34.0329 -11.1706 -90
      vertex 34.5691 -8.4752 -90
    endloop
  endfacet
  facet normal 0 0 -1
    outer loop
      vertex 50 -15 -90
      vertex 33.287 -13.8156 -90
      vertex 34.0329 -11.1706 -90
    endloop
  endfacet
  facet normal 0 -0 -1
    outer loop
      vertex 33.287 -13.8156 -90
      vertex 50 -15 -90
      vertex 32.85 -15 -90
    endloop
  endfacet
  facet normal 0 0 -1
    outer loop
      vertex 50 -15 -90
      vertex 34.8921 -0.253922 -90
      vertex 50 15 -90
    endloop
  endfacet
  facet normal 0 0 -1
    outer loop
      vertex 34.5691 2.4752 -90
      vertex 50 15 -90
      vertex 34.8921 -0.253922 -90
    endloop
  endfacet
  facet normal 0 0 -1
    outer loop
      vertex 34.0329 5.17058 -90
      vertex 50 15 -90
      vertex 34.5691 2.4752 -90
    endloop
  endfacet
  facet normal 0 0 -1
    outer loop
      vertex 33.287 7.81558 -90
      vertex 50 15 -90
      vertex 34.0329 5.17058 -90
    endloop
  endfacet
  facet normal 0 0 -1
    outer loop
      vertex 32.3358 10.3939 -90
      vertex 50 15 -90
      vertex 33.287 7.81558 -90
    endloop
  endfacet
  facet normal 0 0 -1
    outer loop
      vertex 31.1852 12.8897 -90
      vertex 50 15 -90
      vertex 32.3358 10.3939 -90
    endloop
  endfacet
  facet normal -0 0 -1
    outer loop
      vertex 50 15 -90
      vertex 31.1852 12.8897 -90
      vertex 30.0034 15 -90
    endloop
  endfacet
  facet normal 0.962462 0.271418 0
    outer loop
      vertex -33.287 -13.8156 90
      vertex -34.0329 -11.1706 -90
      vertex -34.0329 -11.1706 90
    endloop
  endfacet
  facet normal 0.962462 0.271418 0
    outer loop
      vertex -34.0329 -11.1706 -90
      vertex -33.287 -13.8156 90
      vertex -33.287 -13.8156 -90
    endloop
  endfacet
  facet normal 0.980783 0.195102 0
    outer loop
      vertex -34.1475 -10.5946 90
      vertex -34.5691 -8.4752 -90
      vertex -34.5691 -8.4752 90
    endloop
  endfacet
  facet normal 0.980777 0.195134 -0
    outer loop
      vertex -34.0329 -11.1706 -90
      vertex -34.1475 -10.5946 90
      vertex -34.0329 -11.1706 90
    endloop
  endfacet
  facet normal 0.980782 0.195108 8.41758e-08
    outer loop
      vertex -34.1475 -10.5946 90
      vertex -34.0329 -11.1706 -90
      vertex -34.5691 -8.4752 -90
    endloop
  endfacet
  facet normal 0.993069 0.117532 0
    outer loop
      vertex -34.5691 -8.4752 90
      vertex -34.8921 -5.74606 -90
      vertex -34.8921 -5.74606 90
    endloop
  endfacet
  facet normal 0.993069 0.117532 0
    outer loop
      vertex -34.8921 -5.74606 -90
      vertex -34.5691 -8.4752 90
      vertex -34.5691 -8.4752 -90
    endloop
  endfacet
  facet normal 0.999229 0.0392624 0
    outer loop
      vertex -34.8921 -5.74606 90
      vertex -35 -3 -90
      vertex -35 -3 90
    endloop
  endfacet
  facet normal 0.999229 0.0392624 0
    outer loop
      vertex -35 -3 -90
      vertex -34.8921 -5.74606 90
      vertex -34.8921 -5.74606 -90
    endloop
  endfacet
  facet normal 0.999229 -0.0392621 0
    outer loop
      vertex -35 -3 90
      vertex -34.8921 -0.253922 -90
      vertex -34.8921 -0.253922 90
    endloop
  endfacet
  facet normal 0.999229 -0.0392621 0
    outer loop
      vertex -34.8921 -0.253922 -90
      vertex -35 -3 90
      vertex -35 -3 -90
    endloop
  endfacet
  facet normal 0.993069 -0.117533 0
    outer loop
      vertex -34.8921 -0.253922 90
      vertex -34.5691 2.4752 -90
      vertex -34.5691 2.4752 90
    endloop
  endfacet
  facet normal 0.993069 -0.117533 0
    outer loop
      vertex -34.5691 2.4752 -90
      vertex -34.8921 -0.253922 90
      vertex -34.8921 -0.253922 -90
    endloop
  endfacet
  facet normal 0.980781 -0.19511 0
    outer loop
      vertex -34.5691 2.4752 90
      vertex -34.0329 5.17058 -90
      vertex -34.0329 5.17058 90
    endloop
  endfacet
  facet normal 0.980781 -0.19511 0
    outer loop
      vertex -34.0329 5.17058 -90
      vertex -34.5691 2.4752 90
      vertex -34.5691 2.4752 -90
    endloop
  endfacet
  facet normal 0.962462 -0.271418 0
    outer loop
      vertex -34.0329 5.17058 90
      vertex -33.287 7.81558 -90
      vertex -33.287 7.81558 90
    endloop
  endfacet
  facet normal 0.962462 -0.271418 0
    outer loop
      vertex -33.287 7.81558 -90
      vertex -34.0329 5.17058 90
      vertex -34.0329 5.17058 -90
    endloop
  endfacet
  facet normal 0.93819 -0.346119 0
    outer loop
      vertex -33.287 7.81558 90
      vertex -32.3358 10.3939 -90
      vertex -32.3358 10.3939 90
    endloop
  endfacet
  facet normal 0.93819 -0.346119 0
    outer loop
      vertex -32.3358 10.3939 -90
      vertex -33.287 7.81558 90
      vertex -33.287 7.81558 -90
    endloop
  endfacet
  facet normal 0.908126 -0.418698 0
    outer loop
      vertex -31.3841 12.4583 90
      vertex -31.1852 12.8897 -90
      vertex -31.1852 12.8897 90
    endloop
  endfacet
  facet normal 0.908143 -0.418659 1.11883e-07
    outer loop
      vertex -32.3358 10.3939 90
      vertex -31.1852 12.8897 -90
      vertex -31.3841 12.4583 90
    endloop
  endfacet
  facet normal 0.90814 -0.418666 0
    outer loop
      vertex -31.1852 12.8897 -90
      vertex -32.3358 10.3939 90
      vertex -32.3358 10.3939 -90
    endloop
  endfacet
  facet normal 0.8725 -0.488613 0
    outer loop
      vertex -31.1852 12.8897 90
      vertex -30.0034 15 -90
      vertex -30.0034 15 90
    endloop
  endfacet
  facet normal 0.8725 -0.488613 0
    outer loop
      vertex -30.0034 15 -90
      vertex -31.1852 12.8897 90
      vertex -31.1852 12.8897 -90
    endloop
  endfacet
  facet normal 0 1 -0
    outer loop
      vertex -30.0034 15 -90
      vertex -50 15 90
      vertex -30.0034 15 90
    endloop
  endfacet
  facet normal 0 1 0
    outer loop
      vertex -50 15 90
      vertex -30.0034 15 -90
      vertex -50 15 -90
    endloop
  endfacet
  facet normal -1 0 0
    outer loop
      vertex -50 -15 -90
      vertex -50 15 90
      vertex -50 15 -90
    endloop
  endfacet
  facet normal -1 -0 0
    outer loop
      vertex -50 15 90
      vertex -50 -15 -90
      vertex -50 -15 90
    endloop
  endfacet
  facet normal 0 -1 0
    outer loop
      vertex -50 -15 -90
      vertex -32.85 -15 90
      vertex -50 -15 90
    endloop
  endfacet
  facet normal 0 -1 -0
    outer loop
      vertex -32.85 -15 90
      vertex -50 -15 -90
      vertex -32.85 -15 -90
    endloop
  endfacet
  facet normal 0.938178 0.346153 0
    outer loop
      vertex -32.85 -15 90
      vertex -33.287 -13.8156 -90
      vertex -33.287 -13.8156 90
    endloop
  endfacet
  facet normal 0.938178 0.346153 0
    outer loop
      vertex -33.287 -13.8156 -90
      vertex -32.85 -15 90
      vertex -32.85 -15 -90
    endloop
  endfacet
  facet normal 0 1 -0
    outer loop
      vertex 50 15 -90
      vertex 30.0034 15 90
      vertex 50 15 90
    endloop
  endfacet
  facet normal 0 1 0
    outer loop
      vertex 30.0034 15 90
      vertex 50 15 -90
      vertex 30.0034 15 -90
    endloop
  endfacet
  facet normal -0.8725 -0.488613 0
    outer loop
      vertex 31.1852 12.8897 -90
      vertex 30.0034 15 90
      vertex 30.0034 15 -90
    endloop
  endfacet
  facet normal -0.8725 -0.488613 0
    outer loop
      vertex 30.0034 15 90
      vertex 31.1852 12.8897 -90
      vertex 31.1852 12.8897 90
    endloop
  endfacet
  facet normal -0.908126 -0.418698 0
    outer loop
      vertex 31.1852 12.8897 -90
      vertex 31.3841 12.4583 90
      vertex 31.1852 12.8897 90
    endloop
  endfacet
  facet normal -0.90814 -0.418666 9.25436e-08
    outer loop
      vertex 32.3358 10.3939 -90
      vertex 31.3841 12.4583 90
      vertex 31.1852 12.8897 -90
    endloop
  endfacet
  facet normal -0.908143 -0.418659 0
    outer loop
      vertex 31.3841 12.4583 90
      vertex 32.3358 10.3939 -90
      vertex 32.3358 10.3939 90
    endloop
  endfacet
  facet normal -0.93819 -0.346119 0
    outer loop
      vertex 33.287 7.81558 -90
      vertex 32.3358 10.3939 90
      vertex 32.3358 10.3939 -90
    endloop
  endfacet
  facet normal -0.93819 -0.346119 0
    outer loop
      vertex 32.3358 10.3939 90
      vertex 33.287 7.81558 -90
      vertex 33.287 7.81558 90
    endloop
  endfacet
  facet normal -0.962462 -0.271418 0
    outer loop
      vertex 34.0329 5.17058 -90
      vertex 33.287 7.81558 90
      vertex 33.287 7.81558 -90
    endloop
  endfacet
  facet normal -0.962462 -0.271418 0
    outer loop
      vertex 33.287 7.81558 90
      vertex 34.0329 5.17058 -90
      vertex 34.0329 5.17058 90
    endloop
  endfacet
  facet normal -0.980781 -0.19511 0
    outer loop
      vertex 34.5691 2.4752 -90
      vertex 34.0329 5.17058 90
      vertex 34.0329 5.17058 -90
    endloop
  endfacet
  facet normal -0.980781 -0.19511 0
    outer loop
      vertex 34.0329 5.17058 90
      vertex 34.5691 2.4752 -90
      vertex 34.5691 2.4752 90
    endloop
  endfacet
  facet normal -0.993069 -0.117533 0
    outer loop
      vertex 34.8921 -0.253922 -90
      vertex 34.5691 2.4752 90
      vertex 34.5691 2.4752 -90
    endloop
  endfacet
  facet normal -0.993069 -0.117533 0
    outer loop
      vertex 34.5691 2.4752 90
      vertex 34.8921 -0.253922 -90
      vertex 34.8921 -0.253922 90
    endloop
  endfacet
  facet normal -0.999229 -0.0392621 0
    outer loop
      vertex 35 -3 -90
      vertex 34.8921 -0.253922 90
      vertex 34.8921 -0.253922 -90
    endloop
  endfacet
  facet normal -0.999229 -0.0392621 0
    outer loop
      vertex 34.8921 -0.253922 90
      vertex 35 -3 -90
      vertex 35 -3 90
    endloop
  endfacet
  facet normal -0.999229 0.0392624 0
    outer loop
      vertex 34.8921 -5.74606 -90
      vertex 35 -3 90
      vertex 35 -3 -90
    endloop
  endfacet
  facet normal -0.999229 0.0392624 0
    outer loop
      vertex 35 -3 90
      vertex 34.8921 -5.74606 -90
      vertex 34.8921 -5.74606 90
    endloop
  endfacet
  facet normal -0.993069 0.117532 0
    outer loop
      vertex 34.5691 -8.4752 -90
      vertex 34.8921 -5.74606 90
      vertex 34.8921 -5.74606 -90
    endloop
  endfacet
  facet normal -0.993069 0.117532 0
    outer loop
      vertex 34.8921 -5.74606 90
      vertex 34.5691 -8.4752 -90
      vertex 34.5691 -8.4752 90
    endloop
  endfacet
  facet normal -0.980783 0.195102 0
    outer loop
      vertex 34.5691 -8.4752 -90
      vertex 34.1475 -10.5946 90
      vertex 34.5691 -8.4752 90
    endloop
  endfacet
  facet normal -0.980782 0.195108 8.41758e-08
    outer loop
      vertex 34.0329 -11.1706 -90
      vertex 34.1475 -10.5946 90
      vertex 34.5691 -8.4752 -90
    endloop
  endfacet
  facet normal -0.980777 0.195134 0
    outer loop
      vertex 34.1475 -10.5946 90
      vertex 34.0329 -11.1706 -90
      vertex 34.0329 -11.1706 90
    endloop
  endfacet
  facet normal -0.962462 0.271418 0
    outer loop
      vertex 33.287 -13.8156 -90
      vertex 34.0329 -11.1706 90
      vertex 34.0329 -11.1706 -90
    endloop
  endfacet
  facet normal -0.962462 0.271418 0
    outer loop
      vertex 34.0329 -11.1706 90
      vertex 33.287 -13.8156 -90
      vertex 33.287 -13.8156 90
    endloop
  endfacet
  facet normal -0.938178 0.346153 0
    outer loop
      vertex 32.85 -15 -90
      vertex 33.287 -13.8156 90
      vertex 33.287 -13.8156 -90
    endloop
  endfacet
  facet normal -0.938178 0.346153 0
    outer loop
      vertex 33.287 -13.8156 90
      vertex 32.85 -15 -90
      vertex 32.85 -15 90
    endloop
  endfacet
  facet normal 0 -1 0
    outer loop
      vertex 32.85 -15 -90
      vertex 50 -15 90
      vertex 32.85 -15 90
    endloop
  endfacet
  facet normal 0 -1 -0
    outer loop
      vertex 50 -15 90
      vertex 32.85 -15 -90
      vertex 50 -15 -90
    endloop
  endfacet
  facet normal 1 -0 0
    outer loop
      vertex 50 -15 90
      vertex 50 15 -90
      vertex 50 15 90
    endloop
  endfacet
  facet normal 1 0 0
    outer loop
      vertex 50 15 -90
      vertex 50 -15 90
      vertex 50 -15 -90
    endloop
  endfacet
endsolid OpenSCAD_Model
